<svg width="4057" height="2443" viewBox="0 0 4057 2443" fill="none" xmlns="http://www.w3.org/2000/svg">
<path d="M3162.87 1964.67C3085.4 1962.34 3004.46 1961.85 2924.99 1962.6C2928.09 1991.06 2931.99 2032.98 2935.99 2075.82L2935.99 2075.82L2935.99 2075.83V2075.83C2943.34 2154.67 2950.97 2236.58 2954.36 2243.36C2981.7 2292.19 3008.07 2338.09 3033.46 2381.05C3060.8 2422.07 3089.12 2442.58 3118.42 2442.58C3128.19 2442.58 3136 2423.05 3141.86 2383.98C3149.67 2344.92 3156.51 2296.09 3162.37 2237.5C3165.9 2201 3164.46 2088.89 3163.19 1989.76V1989.74C3163.08 1981.27 3162.98 1972.9 3162.87 1964.67Z" fill="url(#paint0_radial_10_58)"/>
<path d="M2879.83 1348.26C2875.37 1265.9 2870.92 1182.41 2866.47 1097.8C2860.61 986.47 2855.73 877.094 2851.82 769.673C2849.87 662.251 2847.91 565.571 2845.96 479.634C2844.01 393.696 2844.01 322.407 2845.96 265.766C2847.91 207.173 2851.82 172.993 2857.68 163.227C2865.49 149.555 2892.83 139.79 2939.71 133.93C2986.58 126.118 3043.23 122.212 3109.63 122.212C3141.4 122.212 3229.25 95.0006 3322.04 66.2584C3428.95 33.1444 3542.42 -2.0022 3584.24 0.0889648C3662.37 3.99522 3734.63 9.85458 3801.04 17.6671C3869.4 23.5265 3926.04 30.3624 3970.96 38.1749C4017.84 45.9874 4044.2 52.8233 4050.06 58.6827C4057.87 66.4952 4058.85 87.9796 4052.99 123.136C4049.09 156.339 4041.27 193.448 4029.55 234.464C4019.79 273.526 4007.09 310.636 3991.47 345.792C3985.25 361.78 3965.82 442.012 3945.55 525.668L3945.54 525.714L3945.53 525.754L3945.53 525.769L3945.52 525.777L3945.52 525.786C3921.24 626.052 3895.77 731.196 3890.44 736.519C3880.68 746.284 3834.78 745.308 3752.75 733.589C3722.01 729.09 3656.22 695.513 3576.76 654.963C3449.24 589.882 3286.52 506.839 3177.01 497.212V986.47C3313.73 998.188 3420.18 1008.93 3496.35 1018.7C3574.48 1028.46 3615.49 1035.3 3619.4 1039.2C3627.21 1047.02 3630.14 1062.64 3628.19 1086.08C3626.23 1109.52 3621.35 1134.91 3613.54 1162.25C3609.67 1174.84 3605.31 1187.18 3600.48 1199.28C3489.83 1222.24 3374.53 1246.03 3256.55 1270.38C3133.14 1295.84 3006.81 1321.91 2879.83 1348.26Z" fill="url(#paint1_radial_10_58)"/>
<path d="M2474.59 1433C2476.93 1353.45 2478.65 1272.96 2479.75 1191.55C2483.66 1047.02 2485.61 906.392 2485.61 769.673C2485.97 744.241 2485.94 743.297 2485.84 739.177C2485.76 735.552 2485.61 729.469 2485.61 702.089C2485.61 643.589 2186.25 555.987 2179.75 554.487C2179.06 554.329 2178.15 554.1 2177.07 553.828C2167.86 551.516 2146.2 546.078 2145.77 554.487C2145.29 563.885 2147.85 711.473 2151.62 807.759C2155.53 905.415 2160.41 1011.86 2166.27 1127.09C2174.09 1240.38 2180.92 1351.7 2186.78 1461.08C2187.58 1472.09 2188.37 1483.03 2189.15 1493.89C2282.57 1473.74 2378.06 1453.39 2474.59 1433Z" fill="url(#paint2_radial_10_58)"/>
<path d="M1895.91 2030.78C1963.33 2027.84 2054.63 2018.61 2158.13 2008.15C2249.63 1998.9 2350.66 1988.69 2453.16 1981C2525.74 1975.56 2631.42 1969.83 2750.23 1966.16C2749.79 1977.88 2747.06 1997.79 2744.38 2017.39L2744.37 2017.4L2744.37 2017.42C2742.95 2027.79 2741.54 2038.08 2740.49 2047.02C2739.01 2058.83 2737.68 2080.85 2736.17 2105.77V2105.79C2733.69 2146.78 2730.74 2195.63 2725.88 2219.92C2718.07 2257.03 2710.26 2291.21 2702.44 2322.46C2694.63 2355.66 2688.77 2376.17 2684.86 2383.98C2630.18 2385.94 2579.4 2385.94 2532.52 2383.98C2487.6 2383.98 2448.54 2382.03 2415.33 2378.12C2376.27 2376.17 2341.11 2373.24 2309.86 2369.34C2278.61 2363.48 2245.41 2356.64 2210.26 2348.83C2180.96 2341.02 2146.78 2331.25 2107.72 2319.53C2070.61 2307.81 2032.52 2293.16 1993.46 2275.59C1985.65 2271.68 1975.88 2260.94 1964.16 2243.36C1959.56 2235.08 1954.09 2211.65 1948.37 2187.13C1941.93 2159.55 1935.17 2130.6 1928.97 2120.26C1919.2 2098.77 1911.39 2078.27 1905.53 2058.74C1901.02 2047.47 1897.82 2038.15 1895.91 2030.78Z" fill="url(#paint3_radial_10_58)"/>
<path d="M1907.74 1555.53C1910.17 1534.05 1911.39 1511.36 1911.39 1487.45C1911.39 1450.34 1908.46 1416.16 1902.6 1384.91C1896.74 1353.66 1887.95 1333.15 1876.23 1323.38C1862.56 1313.62 1828.38 1306.78 1773.69 1302.88C1719.01 1297.02 1660.41 1294.09 1597.91 1294.09C1537.37 1294.09 1481.7 1297.02 1430.92 1302.88C1382.09 1308.74 1355.73 1318.5 1351.82 1332.17C1349.87 1341.94 1346.94 1354.63 1343.03 1370.26C1341.08 1383.93 1339.12 1399.56 1337.17 1417.13C1337.17 1432.76 1338.15 1449.36 1340.1 1466.94C1342.05 1482.56 1345.96 1495.26 1351.82 1505.02C1355.73 1510.88 1365.49 1518.7 1381.12 1528.46C1398.7 1536.27 1420.18 1545.06 1445.57 1554.83C1470.96 1562.64 1498.3 1571.43 1527.6 1581.2C1558.85 1590.96 1590.1 1599.75 1621.35 1607.56C1618.1 1612.68 1614.9 1617.84 1611.76 1623.07C1704.98 1601.18 1804.2 1578.59 1907.74 1555.53Z" fill="url(#paint4_radial_10_58)"/>
<path d="M1346.27 2083.31C1509.11 2060.02 1648.54 2041.36 1731.28 2033.08C1731.13 2034 1730.97 2034.93 1730.82 2035.85L1730.82 2035.85C1722.29 2087.53 1712.82 2144.88 1697.52 2181.84C1674.09 2236.52 1648.69 2283.4 1621.35 2322.46C1595.96 2361.52 1109.95 2307.73 875.45 2255.08C796.081 2237.26 726.591 2212.17 667.117 2184.71C880.22 2152.16 1125.27 2115.01 1333.83 2085.09C1333.96 2085.1 1334.1 2085.1 1334.24 2085.1C1337.9 2085.62 1341.91 2085.03 1346.27 2083.31Z" fill="url(#paint5_radial_10_58)"/>
<path d="M1249.94 1712.85C1246.55 1672.6 1243.4 1630.67 1240.49 1587.06C1236.59 1497.21 1234.63 1411.27 1234.63 1329.24C1234.63 1214.01 1240.49 1099.75 1252.21 986.469C1263.93 871.235 1276.62 766.743 1290.3 672.993C1305.92 579.243 1321.55 501.118 1337.17 438.618C1352.8 376.118 1363.54 339.985 1369.4 330.219C1375.26 320.454 1383.07 315.571 1392.84 315.571C1402.6 313.618 1413.34 314.594 1425.06 318.501C1436.78 322.407 1446.55 327.29 1454.36 333.149C1464.12 339.008 1470.96 344.868 1474.87 350.727C1476.82 354.633 1479.75 371.235 1483.66 400.532C1487.56 429.829 1491.47 465.962 1495.37 508.93C1501.23 551.899 1507.09 598.774 1512.95 649.555C1518.81 698.383 1524.67 745.258 1530.53 790.18C1538.34 833.149 1545.18 870.258 1551.04 901.508C1558.85 932.758 1566.66 951.313 1574.48 957.173C1586.19 964.985 1598.89 966.938 1612.56 963.032C1628.19 957.173 1642.84 948.383 1656.51 936.665C1672.13 924.946 1686.78 911.274 1700.45 895.649C1716.08 880.024 1728.77 865.376 1738.54 851.704C1746.35 839.985 1757.09 819.477 1770.77 790.18C1786.39 758.93 1801.04 724.751 1814.71 687.641C1828.38 648.579 1840.1 609.516 1849.87 570.454C1859.63 529.438 1863.54 492.329 1861.59 459.126C1857.68 425.922 1828.38 382.954 1773.69 330.219C1719.01 277.485 1650.65 226.704 1568.62 177.876C1486.59 129.047 1397.72 89.0084 1302.02 57.7584C1225.93 32.3967 923.704 215.988 752.753 319.834L752.75 319.836L752.743 319.84C713.057 343.948 680.447 363.757 659.384 375.656C547.591 438.812 174.731 741 114.678 851.704C54.6257 962.408 -1.82212 1071 0.045066 1191.55C1.91225 1312.1 31.6779 1449.36 57.1779 1528.46C82.6779 1607.56 220.178 1818.5 220.178 1818.5C220.178 1818.5 362.933 1966.44 426.35 2025.76C594.103 1953.46 766.843 1880.88 944.568 1808C1010.32 1780.94 1115.66 1748.71 1249.94 1712.85Z" fill="url(#paint6_radial_10_58)"/>
<path d="M2714.56 420.991C2681.36 422.944 2648.16 423.92 2614.95 423.92C2583.7 421.967 2554.41 420.991 2527.06 420.991C2495.81 420.991 2466.52 420.014 2439.17 418.061L2439.2 418.831L2276.24 407.258L2116.48 383.784C2116.62 383.491 2116.76 383.198 2116.91 382.905L2034.87 362.397C2011.44 356.538 1986.05 349.702 1958.7 341.889C1931.36 334.077 1904.01 325.288 1876.67 315.522C1868.86 311.616 1859.09 300.873 1847.37 283.295C1833.7 265.717 1821.01 246.186 1809.29 224.702C1795.62 203.217 1784.87 183.686 1777.06 166.108C1767.3 146.577 1762.41 132.905 1762.41 125.092C1762.41 121.186 1787.8 117.28 1838.58 113.373C1887.41 107.514 1948.94 102.631 2023.16 98.725C2097.37 94.8188 2177.45 91.8891 2263.39 89.9359C2351.28 87.9828 2432.34 87.0063 2506.55 87.0063C2582.73 87.0063 2646.2 87.9828 2696.98 89.9359C2749.72 89.9359 2778.04 91.8891 2781.94 95.7953C2787.8 101.655 2787.8 121.186 2781.94 154.389C2778.04 185.639 2771.2 220.795 2761.44 259.858C2753.62 296.967 2744.84 332.123 2735.07 365.327C2727.26 396.577 2720.42 415.131 2714.56 420.991Z" fill="url(#paint7_radial_10_58)"/>
<defs>
<radialGradient id="paint0_radial_10_58" cx="0" cy="0" r="1" gradientUnits="userSpaceOnUse" gradientTransform="translate(4057 -410) rotate(144.44) scale(4390.85 7292.55)">
<stop stop-color="#6C4EE5"/>
<stop offset="1" stop-color="#0AC5DF"/>
</radialGradient>
<radialGradient id="paint1_radial_10_58" cx="0" cy="0" r="1" gradientUnits="userSpaceOnUse" gradientTransform="translate(4057 -410) rotate(144.44) scale(4390.85 7292.55)">
<stop stop-color="#6C4EE5"/>
<stop offset="1" stop-color="#0AC5DF"/>
</radialGradient>
<radialGradient id="paint2_radial_10_58" cx="0" cy="0" r="1" gradientUnits="userSpaceOnUse" gradientTransform="translate(4057 -410) rotate(144.44) scale(4390.85 7292.55)">
<stop stop-color="#6C4EE5"/>
<stop offset="1" stop-color="#0AC5DF"/>
</radialGradient>
<radialGradient id="paint3_radial_10_58" cx="0" cy="0" r="1" gradientUnits="userSpaceOnUse" gradientTransform="translate(4057 -410) rotate(144.44) scale(4390.85 7292.55)">
<stop stop-color="#6C4EE5"/>
<stop offset="1" stop-color="#0AC5DF"/>
</radialGradient>
<radialGradient id="paint4_radial_10_58" cx="0" cy="0" r="1" gradientUnits="userSpaceOnUse" gradientTransform="translate(4057 -410) rotate(144.44) scale(4390.85 7292.55)">
<stop stop-color="#6C4EE5"/>
<stop offset="1" stop-color="#0AC5DF"/>
</radialGradient>
<radialGradient id="paint5_radial_10_58" cx="0" cy="0" r="1" gradientUnits="userSpaceOnUse" gradientTransform="translate(4057 -410) rotate(144.44) scale(4390.85 7292.55)">
<stop stop-color="#6C4EE5"/>
<stop offset="1" stop-color="#0AC5DF"/>
</radialGradient>
<radialGradient id="paint6_radial_10_58" cx="0" cy="0" r="1" gradientUnits="userSpaceOnUse" gradientTransform="translate(4057 -410) rotate(144.44) scale(4390.85 7292.55)">
<stop stop-color="#6C4EE5"/>
<stop offset="1" stop-color="#0AC5DF"/>
</radialGradient>
<radialGradient id="paint7_radial_10_58" cx="0" cy="0" r="1" gradientUnits="userSpaceOnUse" gradientTransform="translate(4057 -410) rotate(144.44) scale(4390.85 7292.55)">
<stop stop-color="#6C4EE5"/>
<stop offset="1" stop-color="#0AC5DF"/>
</radialGradient>
</defs>
</svg>
